<?xml version="1.0" encoding="UTF-8" standalone="no"?>
<!-- Created with Inkscape (http://www.inkscape.org/) -->

<svg
   width="48"
   height="48"
   viewBox="0 0 12.7 12.7"
   version="1.1"
   id="svg1"
   xml:space="preserve"
   inkscape:export-filename="icono.svg"
   inkscape:export-xdpi="96"
   inkscape:export-ydpi="96"
   xmlns:inkscape="http://www.inkscape.org/namespaces/inkscape"
   xmlns:sodipodi="http://sodipodi.sourceforge.net/DTD/sodipodi-0.dtd"
   xmlns="http://www.w3.org/2000/svg"
   xmlns:svg="http://www.w3.org/2000/svg"><sodipodi:namedview
     id="namedview1"
     pagecolor="#ffffff"
     bordercolor="#000000"
     borderopacity="0.25"
     inkscape:showpageshadow="2"
     inkscape:pageopacity="0.0"
     inkscape:pagecheckerboard="0"
     inkscape:deskcolor="#d1d1d1"
     inkscape:document-units="mm" /><defs
     id="defs1"><inkscape:path-effect
       effect="lattice2"
       gridpoint0="86.205475,133.75878"
       gridpoint1="113.13645,123.03282"
       gridpoint2="80.980006,170.31977"
       gridpoint3="106.53586,172.10743"
       gridpoint4="89.019117,123.03282"
       gridpoint5="108.12261,134.99639"
       gridpoint6="100.98269,168.53211"
       gridpoint7="105.09734,170.31977"
       gridpoint8x9="97.333253,123.99541"
       gridpoint10x11="97.058228,170.31977"
       gridpoint12="82.767666,133.06689"
       gridpoint13="110.24869,145.44301"
       gridpoint14="80.980006,158.49803"
       gridpoint15="116.57426,153.54759"
       gridpoint16="88.60658,138.15485"
       gridpoint17="105.09734,134.85456"
       gridpoint18="90.39424,154.92271"
       gridpoint19="111.56042,157.12291"
       gridpoint20x21="97.058228,134.85456"
       gridpoint22x23="97.058228,158.49803"
       gridpoint24x26="73.279314,142.13839"
       gridpoint25x27="115.19914,148.73898"
       gridpoint28x30="85.168771,152.3143"
       gridpoint29x31="105.09734,146.67629"
       gridpoint32x33x34x35="97.058228,146.67629"
       id="path-effect3"
       is_visible="true"
       lpeversion="1"
       horizontal_mirror="false"
       vertical_mirror="false"
       perimetral="false"
       live_update="true" /></defs><g
     inkscape:label="Capa 1"
     inkscape:groupmode="layer"
     id="layer1"><g
       id="g3"
       transform="matrix(0.18109926,0,0,0.18109926,-11.344949,-19.458488)"
       inkscape:label="g3"><path
         style="fill:#000000"
         d="m 87.121747,174.44967 c -1.56678,-1.72639 -3.96933,-4.90145 -5.33901,-7.05569 -1.36968,-2.15423 -4.89637,-5.14426 -7.83709,-6.6445 -9.65102,-4.92358 -12.64637,-15.2256 -5.03555,-17.31896 1.72461,-0.47436 6.06304,-2.1674 9.64095,-3.76232 11.93434,-5.31995 26.263023,4.11996 24.233533,15.96535 -0.55708,3.25147 -0.93846,8.25182 -0.84751,11.11187 0.30324,9.53618 -8.838463,14.29003 -14.815323,7.70425 z m 24.683343,-12.20681 c -4.06411,-7.59387 12.5697,-18.56484 18.08028,-11.925 2.31192,2.78569 0.70633,6.94419 -4.31123,11.16619 -5.16603,4.34693 -11.65729,4.70466 -13.76905,0.75881 z m -2.51111,-22.60005 c -4.7037,-4.7037 0.44514,-13.79474 9.03369,-15.95033 7.92557,-1.98919 10.00325,7.12407 3.09534,13.57703 -4.55363,4.25373 -9.31662,5.18571 -12.12903,2.3733 z m -41.539283,-9.60342 c -5.27299,-5.82659 -1.68563,-19.41393 5.1257,-19.41393 6.78862,0 9.16379,13.14695 3.41396,18.89678 -4.17224,4.17225 -5.17679,4.23308 -8.53966,0.51715 z m 23.40344,-2.95217 c -2.59359,-2.59358 -1.97851,-10.11821 1.15244,-14.09857 5.57939,-7.09304 12.519193,-5.94995 12.519193,2.0621 0,9.75085 -8.486113,17.22199 -13.671633,12.03647 z"
         id="path1" /><g
         id="g2"
         transform="translate(-9.12968,6.0864534)"
         inkscape:path-effect="#path-effect3"
         style="fill:#efc093;fill-opacity:1"><path
           d="m 102.82001,141.18306 c 1.71556,0.24967 3.14278,1.68552 5.16309,3.26936 0.79666,0.77239 1.24345,1.13525 1.42086,1.50503 0.004,0.22614 0.0154,0.66686 0.0154,0.66686 0.0172,-0.0159 0.0515,-0.048 0.0515,-0.048 0.1157,-0.10841 0.85625,-1.3034 1.84807,-5.46966 9.4e-4,0.0557 0.003,0.16654 0.003,0.16654 -0.63711,5.26344 -1.27548,8.20865 -2.2184,10.56222 -0.019,0.0101 -0.057,0.0301 -0.057,0.0301 -0.004,-0.0621 -0.0123,-0.18738 -0.0123,-0.18738 -0.0702,-1.0702 -0.56196,-1.69912 -1.52998,-1.94804 -0.19161,-0.0209 -0.58023,-0.0763 -0.58023,-0.0763 -0.45133,0.18592 -1.40299,0.46606 -1.40299,0.46606 -1.25428,0.32385 -2.83696,1.79692 -4.46695,3.59186 -0.60614,1.15955 -0.78297,1.8588 -0.65406,2.35729 0.028,0.003 0.084,0.009 0.084,0.009 1.84073,-0.2474 3.52371,-0.59428 5.11793,-1.11575 -0.003,-0.0272 -0.009,-0.0818 -0.009,-0.0818 -0.47681,-0.11026 -1.47739,-0.37944 -1.47739,-0.37944 -0.005,-0.0491 -0.0149,-0.14811 -0.0149,-0.14811 0.89864,0.0854 1.8441,0.12097 2.80825,0.0803 0.87365,-0.0369 1.49796,-0.12705 1.49796,-0.12705 0.004,0.0649 0.13038,0.0774 0.37071,0.0274 1.60349,-0.82614 2.59925,-1.97192 3.21341,-3.15509 -0.42907,0.97472 -1.44539,2.57997 -1.44539,2.57997 -0.30949,0.76235 -0.43474,1.59112 -0.53233,2.6964 -0.055,0.72086 -0.16242,1.51765 -0.3769,2.43229 -0.19499,0.83157 -0.43858,1.56581 -0.43858,1.56581 -0.35144,1.02429 -0.82208,2.1986 -1.54455,3.82368 -0.64947,1.46085 -1.33813,2.92829 -1.33813,2.92829 -0.70914,1.55331 -0.98614,2.51357 -0.58868,2.54282 0.30467,0.0874 1.03118,0.24325 1.03118,0.24325 0.0523,0.001 0.1589,0.003 0.1589,0.003 -0.0403,0.11873 -0.12132,0.35957 -0.12132,0.35957 -0.77775,0.37539 -2.05834,0.97472 -2.05834,0.97472 -1.3983,-0.5631 -1.67781,-1.50826 -1.68574,-2.27174 0.0468,-1.21653 0.0444,-2.08584 -0.0899,-3.1379 -0.012,-0.002 -0.036,-0.007 -0.036,-0.007 -0.25787,0.35499 -0.51788,0.95253 -1.44429,2.65718 -0.15514,0.65459 -0.66399,2.10166 -0.66399,2.10166 -0.009,-0.004 -0.0279,-0.0108 -0.0279,-0.0108 0.25907,-0.94144 0.42753,-1.91201 0.38793,-2.86391 -0.036,-0.8657 -0.24892,-1.48205 -0.24892,-1.48205 0.0148,0.002 0.0443,0.007 0.0443,0.007 0.0686,0.0524 0.19892,0.15823 0.19892,0.15823 0.28627,0.0481 0.74344,-0.63697 1.15165,-1.83975 0.0653,0.01 0.13869,-0.16414 0.19423,-0.50555 -0.0175,-0.002 -0.0526,-0.007 -0.0526,-0.007 -1.14189,-2.92447 -3.951088,-4.75071 -5.151793,-6.37161 -1.089895,0.23158 -2.017504,0.49972 -2.8056,0.89913 -1.061486,0.0656 -2.129782,0.51048 -3.289247,1.96477 0.78351,-1.02637 1.519558,-1.87451 2.457858,-2.62709 0.831716,-0.66709 1.60246,-1.0863 1.60246,-1.0863 0.886402,-0.0446 1.285652,-0.15944 1.213904,-0.32245 -0.14338,-0.26249 -0.402384,-0.79183 -0.402384,-0.79183 -0.343447,-0.95523 -0.142238,-1.89596 0.695119,-3.08002 0.523662,0.12414 1.548789,0.32672 1.548789,0.32672 0.241876,-0.0472 0.358965,-0.21414 0.369827,-0.50504 0.003,-0.0815 0.0114,-0.24639 0.0114,-0.24639 0.0308,-0.55999 -0.358474,-0.9588 -1.231172,-1.24693 -1.969573,-0.46141 -4.276032,-0.59612 -6.865551,-0.42853 -0.886785,0.14729 -1.639315,0.32969 -2.246765,0.58162 -0.03398,-0.0142 -0.101968,-0.0426 -0.101968,-0.0426 6.9e-4,-0.14179 0.01322,-0.42634 0.01322,-0.42634 0.0695,-1.22055 2.926929,-0.82816 7.88794,-1.52703 0.851916,0.009 2.482566,-0.11273 2.482566,-0.11273 0.05973,-0.27801 -1.325392,-0.88555 -4.190746,-2.68715 0.02771,-0.0748 0.08385,-0.22553 0.08385,-0.22553 1.233172,0.70287 3.668798,1.80207 3.668798,1.80207 0.353422,0.0861 1.049867,0.2282 1.049867,0.2282 0.79673,-0.0469 1.96749,-0.33668 3.24947,-1.10005 0.32421,-0.0858 0.95445,-0.29952 0.95445,-0.29952 0.18696,-0.0205 0.55535,-0.0767 0.55535,-0.0767 1.1955,-0.19972 2.14,0.0836 3.10589,0.88534 0.08,-0.0417 0.23829,-0.12849 0.23829,-0.12849 0.0843,-0.21127 0.25094,-0.64901 0.25094,-0.64901 0.004,-0.17206 0.0133,-0.52327 0.0133,-0.52327 -0.0735,-0.1204 -0.21736,-0.36744 -0.21736,-0.36744 -0.0765,0.0484 -0.23101,0.14135 -0.23101,0.14135 -0.13151,0.288 -0.39935,0.83582 -0.39935,0.83582 -1.03864,-2.0397 -1.97247,-3.46841 -3.46016,-4.26667 -0.39166,-0.11081 -1.19225,-0.41159 -1.19225,-0.41159 -0.099,0.0457 -0.29824,0.1328 -0.29824,0.1328 -0.0152,-0.0491 -0.0456,-0.14779 -0.0456,-0.14779 0.0101,-0.0479 0.0303,-0.14416 0.0303,-0.14416 0.33235,-0.58101 0.66266,-0.88542 1.001,-0.8986 0,0 4e-5,3e-5 4e-5,3e-5 z m -1.99135,16.27514 c 0.45729,1.30977 1.77241,2.69847 2.6142,4.63659 0.0177,0.002 0.0531,0.005 0.0531,0.005 0.31054,-0.75987 0.45224,-1.22315 0.42728,-1.47387 -0.34466,-0.61052 -0.59653,-0.95886 -0.62682,-1.09912 0.68902,0.46999 1.37004,1.00502 1.89918,1.62628 0.48383,0.56807 0.70671,1.07665 0.70671,1.07665 -0.006,0.0289 -0.0192,0.0869 -0.0192,0.0869 -0.22371,-0.1213 -0.72754,-0.36669 -0.72754,-0.36669 -0.25995,0.12772 -0.63139,0.70507 -1.23121,1.95466 0.39574,1.86921 0.0339,3.45118 0.22594,3.95022 0.0223,0.062 0.0657,0.18704 0.0657,0.18704 0.0561,0.012 0.1694,0.0351 0.1694,0.0351 1.3576,-2.76052 2.25695,-4.98972 2.74502,-6.93718 0.43237,-1.72525 0.46126,-2.90494 0.46126,-2.90494 0.0327,-0.76396 -0.0377,-2.28693 -0.0377,-2.28693 -2.91372,1.05956 -5.49329,1.17795 -6.72521,1.51037 0,0 1e-5,3e-5 1e-5,3e-5 z m 6.25856,12.3367 c 0.054,9e-5 0.16395,-2.5e-4 0.16395,-2.5e-4 -0.0407,0.126 -0.12252,0.38181 -0.12252,0.38181 -0.0566,-5e-4 -0.16759,-0.002 -0.16759,-0.002 0.0422,-0.12782 0.0843,-0.25433 0.12616,-0.37956 z"
           id="text1"
           style="font-size:22.5778px;font-family:'Metal Macabre';-inkscape-font-specification:'Metal Macabre';fill:#efc093;fill-opacity:1;stroke-width:0.315298"
           aria-label="V   G"
           sodipodi:nodetypes="scccsccccsccscccccccccccccccccccccccccccccccccccccccssccccsccccccccsccccccccccccssscccccccccccccssccccc"
           inkscape:original-d="m 99.600676,127.96071 c 1.980534,0.27496 4.483274,2.01057 7.508194,5.20683 1.18451,1.38619 1.8882,2.32559 2.1111,2.8182 v 0.70456 h 0.0764 c 0.17194,0 1.24182,-0.89357 3.20962,-2.68074 v 0.1374 c -1.34371,3.19626 -2.70016,6.06031 -4.06934,8.59211 h -0.0764 v -0.27494 c 0,-1.52368 -0.5986,-2.74375 -1.79583,-3.66026 l -0.7069,-0.4296 h -1.64301 c -1.42012,0 -2.93259,1.73561 -4.537405,5.20684 -0.624095,2.18811 -0.936138,3.78625 -0.936138,4.79439 h 0.07639 c 1.757643,-0.93941 3.505733,-1.68979 5.244283,-2.25112 v -0.15465 l -1.49018,-0.9795 v -0.27496 l 4.77621,1.40911 c 0,0.1147 0.15602,0.20622 0.46806,0.27495 2.13975,-0.37803 3.80825,-0.9394 5.00548,-1.68406 l -2.50274,2.11365 c -0.47126,0.88214 -0.70689,2.28552 -0.70689,4.21015 l 0.0764,6.90806 -0.15283,8.43746 c 0,1.50075 0.36616,2.25113 1.09853,2.25113 l 1.87228,0.15465 h 0.23882 v 0.27495 l -2.66513,0.84204 c -3.12683,-0.27496 -5.23792,-0.74466 -6.33327,-1.40912 -1.3437,-0.91647 -2.41358,-1.90172 -3.20961,-2.95569 h -0.0764 c -0.23562,0.33225 -0.627254,1.31748 -1.174941,2.95569 l 0.706883,1.82153 h -0.08596 l -2.970801,-3.93518 h 0.07638 l 0.391656,0.1374 c 0.54767,0 1.0444,-0.79619 1.490179,-2.38859 0.114619,0 0.194231,-0.23486 0.238807,-0.70456 h -0.086 c -2.203412,-3.74616 -3.480265,-7.17155 -3.830514,-10.27615 -1.1463,0.93938 -2.187496,1.92463 -3.123632,2.95567 -1.006188,0.49261 -2.257555,1.81008 -3.754103,3.95237 l 5.387558,-7.88755 c 0.834239,-0.51553 1.251367,-0.9394 1.251367,-1.27163 l -0.07639,-1.5466 c 0,-1.8559 0.340704,-3.96954 1.022112,-6.34097 h 1.327782 c 0.210163,-0.1604 0.315234,-0.48688 0.315234,-0.9795 v -0.41243 c 0,-0.91649 -0.391645,-1.43773 -1.17494,-1.56376 -1.73855,0 -3.563056,0.93939 -5.473546,2.81821 -0.643189,0.77901 -1.190864,1.57523 -1.643014,2.38863 h -0.07639 v -0.68738 c 0,-1.55805 1.926401,-3.76336 5.779206,-6.61593 l 2.120637,-0.9967 c 0,-0.37804 -1.407397,-0.9394 -4.222155,-1.68404 v -0.29215 l 3.591699,0.70456 h 1.012535 c 0.75782,-0.25203 1.776749,-0.81337 3.056761,-1.68406 l 1.01257,-0.27492 h 0.63045 c 1.35645,0 2.66194,0.75037 3.9165,2.25111 h 0.30567 l 0.31524,-0.56707 v -0.56708 l -0.31524,-0.54991 h -0.30567 l -0.47762,0.68737 c -1.44561,-2.85257 -3.13956,-4.72566 -5.0819,-5.61924 l -1.490163,-0.4296 -0.305682,0.1374 -0.08599,-0.1374 v -0.1374 c 0.235627,-0.56135 0.550849,-0.84201 0.945684,-0.84201 z m -0.859714,23.37055 c 0,2.81821 0.573148,5.77389 1.719438,8.86707 h 0.0764 c 0.47126,-1.31746 0.70688,-2.21105 0.70688,-2.68073 -0.36936,-1.12272 -0.55402,-1.82727 -0.55402,-2.11368 l 3.67767,4.79441 v 0.1374 l -1.32778,-0.56707 c -0.37573,0.21767 -0.89793,1.24872 -1.56659,3.09315 1.31822,2.49746 2.51864,3.95237 3.60125,4.36482 l 0.39164,0.15465 h 0.46809 l 0.2388,-14.22854 v -4.50227 c -3.62993,0.7561 -6.10718,1.64968 -7.431782,2.68073 z m 14.156688,17.30452 h 0.2388 v 0.29213 h -0.2388 z" /><path
           d="m 86.812414,134.9902 c -0.01598,0.12676 -0.06573,0.37816 -0.06573,0.37816 -1.221311,1.32518 -2.603938,1.99622 -3.958521,3.03044 -1.46518,1.11865 -3.199956,2.92391 -3.187195,6.37418 0.01424,3.85086 2.185803,8.03974 7.813191,13.16547 1.93566,2.05259 3.031761,3.05653 3.247084,3.0716 0.02517,-0.0399 0.07511,-0.11893 0.07511,-0.11893 1.496084,1.38023 3.268649,3.09053 4.30925,4.95336 0.98529,1.76382 1.032698,3.44439 1.032698,3.44439 0.0536,0.002 0.159152,0.007 0.159152,0.007 0.191586,-1.66384 -0.06971,-3.24144 -0.784753,-4.84169 -0.643737,-1.44066 -1.423268,-2.46085 -1.423268,-2.46085 -0.181495,-1.42963 -0.599808,-3.2284 -0.735574,-4.48448 -0.133868,-1.23853 0.02326,-2.11721 0.02326,-2.11721 1.228065,0.62087 2.229821,1.228 3.032918,1.86731 0.02805,0.055 0.08513,0.16513 0.08513,0.16513 0.304555,0.7015 1.104046,2.34715 1.104046,2.34715 0.0657,0.01 0.196233,0.0298 0.196233,0.0298 -0.05942,-1.53224 -0.01029,-2.71474 0.60382,-4.29415 0.535166,-1.37638 1.354097,-2.78662 1.354097,-2.78662 -0.03353,-0.004 -0.10068,-0.0137 -0.10068,-0.0137 -1.291304,1.16443 -2.069648,1.57401 -2.260366,1.53473 -0.220288,-0.0454 -0.665,-0.14339 -0.665,-0.14339 -0.773801,-0.3779 -2.331,-1.24474 -2.331,-1.24474 0.331332,-0.77627 0.775231,-1.59575 1.438049,-2.72125 0.589312,-1.00068 1.148489,-1.93166 1.148489,-1.93166 0.326793,-0.62303 0.770155,-1.47102 1.209899,-2.36634 0.416546,-0.84809 0.752894,-1.59412 0.752894,-1.59412 -0.826757,-0.20696 -1.108393,-0.9697 -0.894161,-2.29117 0.336061,-1.20271 1.08286,-1.88084 2.24793,-2.18354 0.0584,0.0103 0.17499,0.0298 0.17499,0.0298 0.0117,-0.0596 0.0348,-0.17914 0.0348,-0.17914 0.17219,0.15134 0.51242,0.44346 0.51242,0.44346 0.11645,-0.16927 0.34637,-0.51722 0.34637,-0.51722 1.34262,2.02011 2.03876,2.77899 2.2047,2.75933 -0.53386,-1.00875 -1.78624,-3.6964 -1.78624,-3.6964 -0.15358,0.25466 -0.46571,0.74507 -0.46571,0.74507 -1.364865,-1.98187 -2.341331,-3.11747 -2.790273,-3.21592 -0.119059,-0.0261 -0.357775,-0.0806 -0.357775,-0.0806 -0.595316,-0.0749 -1.795983,-0.27487 -1.795983,-0.27487 -0.0097,0.12455 -0.03321,0.37169 -0.03321,0.37169 0.384733,0.10968 0.714322,0.56826 0.926327,1.37463 -0.01847,0.11573 -0.05797,0.3454 -0.05797,0.3454 -0.137369,0.78045 -0.710631,2.45676 -2.001631,4.51466 -1.705591,2.71878 -2.929934,3.77437 -5.349855,6.65034 -1.723552,-1.6754 -2.406129,-2.71151 -2.338855,-2.85662 0.648419,-0.8307 2.28723,-2.79079 2.28723,-2.79079 -0.06661,-0.0345 -0.199796,-0.10385 -0.199796,-0.10385 -2.222531,1.92249 -3.78671,3.01639 -4.717869,3.78989 -0.931158,0.77349 -1.333629,1.15476 -1.41499,1.11252 -0.0074,-0.60237 -0.05508,-1.66529 0.118156,-2.97908 0.190204,-1.44249 0.592976,-2.91536 1.406826,-4.85791 2.375554,-1.90014 4.286934,-2.96185 5.736894,-2.411 0.093,0.0353 0.279093,0.1068 0.279093,0.1068 0.632876,0.24383 1.415013,0.81987 2.398184,1.80842 0.0179,-0.048 0.05328,-0.14421 0.05328,-0.14421 -0.720152,-2.73169 -2.330284,-5.37467 -4.837583,-6.45127 -0.05853,0.003 -0.175129,0.012 -0.175129,0.012 -0.153634,0.18839 -0.486068,0.54778 -0.486068,0.54778 -0.315673,0.42962 -0.68353,0.8208 -1.097299,1.1721 z m 1.217931,17.06813 c -0.417392,0.92384 -0.645582,2.96799 -0.645582,2.96799 -0.08751,-0.0249 -0.263075,-0.0749 -0.263075,-0.0749 -0.832736,-0.98682 -1.679811,-2.12151 -2.380368,-3.39139 -0.639697,-1.15957 -0.959201,-2.10503 -0.959201,-2.10503 0.008,-0.12936 0.452472,-0.10915 1.31559,0.0514 1.862719,1.67806 2.918781,2.43416 2.932636,2.55201 z"
           style="font-size:22.5778px;font-family:'Metal Macabre';-inkscape-font-specification:'Metal Macabre';fill:#efc093;fill-opacity:1;stroke-width:0.37445"
           id="path1-6"
           sodipodi:nodetypes="ccscccccccccccccscccccccccccccsccccsccccccsscccccccccccc"
           inkscape:original-d="m 81.910269,125.37972 0.09074,0.65304 c -0.68067,2.17686 -1.021003,4.40815 -1.021003,6.69384 0,5.18367 1.890747,13.26526 5.672242,24.24478 0.589914,2.44897 0.960499,3.67345 1.111759,3.67345 l 0.102139,-0.16326 3.06301,9.34692 h 0.181513 l -1.111757,-8.18364 2.59789,-11.69381 c 0.854623,0.61225 1.505041,1.44895 1.951252,2.51018 v 0.32654 l -0.181515,4.51017 h 0.181515 l 3.9025,-15.204 h -0.09074 c -1.17226,2.34013 -1.852927,3.51018 -2.042001,3.51018 h -0.555891 l -1.860492,-1.18365 1.48613,-8.02037 0.748731,-5.02039 c -0.839485,0 -1.334857,-0.66667 -1.486123,-2 0,-1.22447 0.586133,-2.0612 1.758399,-2.51018 h 0.192854 v -0.16324 l 0.646625,0.32654 0.272275,-0.4898 c 1.920981,1.67345 2.976009,2.51019 3.165069,2.51019 l -2.8815,-3.34693 -0.374363,0.67347 c -1.852932,-1.56461 -2.99873,-2.34693 -3.437383,-2.34693 h -0.374365 l -1.849153,0.16325 v 0.34695 c 0.400839,0 0.771425,0.3333 1.111759,0.99998 v 0.32653 c 0,1.48299 -0.930248,6.55778 -2.790744,15.2244 -1.550403,-1.23808 -2.325614,-1.96597 -2.325614,-2.18366 l 0.555884,-4.51018 H 88.13839 c -1.610906,6.5714 -2.476874,9.85709 -2.59788,9.85709 -0.173944,-1.70068 -0.79411,-5.15644 -1.860496,-10.36729 0.476472,-3.78228 1.527727,-5.67343 3.153765,-5.67343 h 0.283608 c 0.635296,0 1.535292,0.2789 2.699988,0.83672 v -0.16323 c -1.520162,-2.40817 -3.565944,-4.36053 -6.137361,-5.85713 h -0.192853 l -0.555884,0.67346 z m 7.067608,21.5509 -1.213856,5.53058 H 87.58251 l -1.678984,-6.69384 c 0,-0.19047 0.310083,-0.46938 0.930247,-0.83672 1.429407,1.14283 2.144104,1.8095 2.144104,1.99998 z" /></g><path
         d="m 73.294259,115.52245 0.423094,0.26179 2.809382,-0.6341 0.127233,0.0858 0.02028,0.0898 c 0.01545,0.0684 -0.162437,0.1962 -0.533635,0.38336 -0.32498,0.0734 -0.654977,1.35894 -0.989983,3.85677 0.207505,0.91936 -0.252983,3.71738 -1.381459,8.3941 -0.337646,1.2716 -0.493442,1.96511 -0.467382,2.08057 l -0.0898,0.0203 -0.440404,-3.11598 c -1.506162,-2.39236 -2.928927,-4.94285 -4.268294,-7.65146 l -0.96425,-1.28558 c -0.629451,0.59597 -0.993354,0.90504 -1.091703,0.92724 l 0.847987,-1.0812 c -0.142891,-0.0756 -0.495589,-0.11508 -1.058088,-0.11845 l -0.03184,-0.1411 0.07802,-0.1322 3.886952,-0.87731 0.114409,0.0887 0.02028,0.0898 -0.81069,0.4998 c 0.91956,2.00346 1.71752,3.39847 2.393876,4.18503 l 1.789683,2.43397 c 0.08125,-0.0183 0.298406,-1.27621 0.651481,-3.77363 l -0.178075,-0.78888 c -0.518644,-1.4019 -1.04308,-2.043 -1.573312,-1.92332 l -0.409227,0.0388 -0.03852,0.008 c -0.307875,0.0695 -0.682452,0.24169 -1.123735,0.51654 l -0.01158,-0.0513 c 0.673637,-1.03734 1.440079,-1.83273 2.299328,-2.38619 z m 0.763,0.60299 0.01159,0.0513 c 0.391133,0.5184 0.618551,0.91871 0.68225,1.20093 0.111461,-0.0835 0.131627,-0.38248 0.0605,-0.89672 -0.216388,-0.30167 -0.467834,-0.42018 -0.75433,-0.35552 z"
         style="font-size:22.5778px;font-family:'Metal Macabre';-inkscape-font-specification:'Metal Macabre';fill:#efc093;fill-opacity:1;stroke:#ffffff;stroke-width:0.40671"
         id="path1-7" /><path
         d="m 103.88424,114.94854 c -1.17275,0.76993 -1.88664,1.51361 -2.1417,2.23101 l -0.12673,0.35647 -0.19145,0.091 -0.19581,0.42281 -0.0808,-0.0287 c 0.33565,-1.44127 0.28378,-2.24005 -0.15563,-2.39626 0.0192,-0.0539 -0.1177,-0.13774 -0.41042,-0.25199 l -1.419119,-0.50454 c -0.892863,0.39468 -1.488892,0.84944 -1.788099,1.36428 l 0.04724,0.12286 2.851688,1.01387 0.0327,0.0571 0.0404,0.0143 c -0.65662,0.62515 -1.217577,1.20855 -1.682883,1.75021 l 0.06052,0.0216 c 0.394574,0.14028 0.763288,-0.009 1.106138,-0.44766 0.177405,-0.44199 0.301875,-0.65026 0.373635,-0.62475 l 0.12107,0.043 0.0674,0.13003 -1.229078,3.457 -0.134357,0.0583 -0.121067,-0.043 c -0.0538,-0.0191 -0.0167,-0.37209 0.111328,-1.05892 -0.04674,-0.45096 -0.345864,-0.77448 -0.89737,-0.97057 l -1.997533,-0.71018 -0.02871,0.0808 c -0.310859,0.87435 -0.177416,2.18948 0.400326,3.94541 0.4751,0.9366 0.826983,1.44555 1.055657,1.52686 0.596346,0.21201 1.405103,-0.23024 2.426282,-1.3268 l 0.221952,0.0789 0.026,0.0547 0.0404,0.0143 -1.600963,2.2869 0.616981,0.65117 -0.03348,0.0942 -1.673934,-1.08764 -5.716833,-2.03252 -0.04724,-0.12286 0.04543,-0.12779 0.114194,-0.0655 0.322834,0.11478 c 0.547021,0.19449 0.95763,-0.0939 1.231823,-0.86509 l 0.622917,-1.58159 0.248683,-0.69947 c -0.0881,-1.17274 0.08783,-2.37788 0.527823,-3.61542 0.183321,-0.51561 0.621525,-1.09469 1.314604,-1.73718 0.126132,-0.44001 0.160455,-0.72832 0.102964,-0.86492 l -0.05711,0.0328 -0.04036,-0.0143 c -0.304898,-0.1084 -0.992817,-0.78734 -2.063767,-2.03679 l -0.100882,-0.0359 0.03111,-0.0875 2.69477,1.41264 5.689936,2.02297 c 0.14348,0.0511 0.6063,0.0135 1.38847,-0.11243 z m -7.063984,2.14008 -0.475855,1.33843 2.179127,0.77476 0.303685,-0.85418 c 0.108405,-0.3049 0.0677,-0.56685 -0.12212,-0.78586 l -1.062659,-0.37781 c -0.506669,-0.18014 -0.780723,-0.21192 -0.822178,-0.0953 z m -1.817321,5.11153 -0.01436,0.0403 c -0.317237,0.89228 -0.354793,1.38146 -0.112667,1.46755 l 0.907068,0.36796 0.618765,0.22 0.01436,-0.0404 c -0.389993,-0.29522 -0.850141,-0.96134 -1.380438,-1.99838 l 0.01435,-0.0403 z"
         style="font-size:22.5778px;font-family:'Metal Macabre';-inkscape-font-specification:'Metal Macabre';fill:#efc093;fill-opacity:1;stroke:#ffffff;stroke-width:0.441513"
         id="path1-78" /><path
         d="m 124.82421,130.006 -0.0768,0.0797 c -0.48889,0.3557 -0.89415,0.70053 -1.21579,1.03448 l -0.60304,0.62613 -0.8711,1.53104 -0.0797,-0.0768 0.21427,-0.7921 -0.0341,-0.0329 -0.15903,0.16506 -0.98556,1.09165 -0.0835,0.0183 -0.11383,-0.10965 c -0.0721,-0.0694 0.0647,-0.32167 0.41057,-0.75667 0.31367,-0.75855 0.26365,-1.33704 -0.14998,-1.73542 l -0.99044,-0.95391 -0.28891,0.39105 -3.81288,4.10706 -1.82164,1.81156 c -0.48243,0.5009 -0.68319,0.92201 -0.60226,1.26329 l 0.17848,1.17038 -0.47393,-0.23706 -3.15916,-3.04268 0.0329,-0.0341 c 1.14806,0.22065 2.03643,0.005 2.66506,-0.64809 l 4.18847,-4.34882 0.41981,-0.265 1.25104,-1.53815 -0.9449,-0.91008 c -0.49712,-0.47878 -1.09224,-0.52164 -1.78539,-0.12855 -0.43684,0.34732 -0.68189,0.49534 -0.73501,0.44417 l -0.0854,-0.0823 0.0139,-0.15118 0.94421,-0.91199 0.0439,-0.0455 -0.0341,-0.0329 c -0.70085,0.18084 -1.07769,0.25313 -1.13054,0.21685 l 0.0768,-0.0797 c 0.97188,-0.43186 1.85069,-1.05572 2.63649,-1.8716 l 0.61824,-0.71028 0.0671,-0.001 c 0.18226,0.77534 0.37392,1.25986 0.57505,1.45358 l 3.20469,3.08653 c 0.9487,0.91371 1.53452,1.25484 1.75747,1.02336 z m -6.77631,-3.09211 -0.0329,0.0341 0.74567,0.71819 c 0.50191,0.33709 1.03593,0.59908 1.6021,0.78593 l 0.15893,-0.16509 -0.31307,-0.30153 c -0.55024,-0.52994 -1.2705,-0.88717 -2.16079,-1.07166 z m 3.35045,2.21747 -0.6568,0.4427 1.45721,1.40348 c -0.006,-0.72277 -0.2179,-1.28515 -0.63534,-1.68719 z"
         style="font-size:22.5778px;font-family:'Metal Macabre';-inkscape-font-specification:'Metal Macabre';fill:#efc093;fill-opacity:1;stroke:#ffffff;stroke-width:0.488819"
         id="path1-4" /><path
         d="m 128.60635,158.36052 c -1.37115,-0.29675 -2.40196,-0.28463 -3.0924,0.0363 l -0.34307,0.15948 -0.19926,-0.0724 -0.4388,0.15672 -0.0361,-0.0777 c 1.26321,-0.77086 1.79656,-1.36775 1.59997,-1.79064 0.0519,-0.0241 0.0158,-0.18048 -0.10796,-0.46935 l -0.63487,-1.36579 c -0.90727,-0.36034 -1.64947,-0.4665 -2.22639,-0.31903 l -0.0543,0.11988 1.27576,2.74454 -0.0182,0.0632 0.0181,0.0388 c -0.90612,-0.0301 -1.71542,-0.0213 -2.42788,0.0265 l 0.027,0.0583 c 0.17652,0.37974 0.54144,0.53807 1.0946,0.47516 0.43959,-0.18328 0.67537,-0.24049 0.70748,-0.17143 l 0.0542,0.11645 -0.0457,0.13914 -3.3271,1.54656 -0.13571,-0.0551 -0.0542,-0.11645 c -0.024,-0.0518 0.25367,-0.27273 0.83328,-0.66284 0.2889,-0.34942 0.3101,-0.78949 0.0632,-1.32034 l -0.89364,-1.92248 -0.0777,0.0361 c -0.8415,0.39115 -1.68593,1.40816 -2.53333,3.05102 -0.33501,0.99535 -0.45132,1.60307 -0.34902,1.82316 0.26679,0.57394 1.14911,0.84076 2.64698,0.80046 l 0.0993,0.2136 -0.0211,0.0568 0.0181,0.0388 -2.75325,0.46115 -0.032,0.89648 -0.0906,0.0421 -0.39761,-1.95626 -2.55755,-5.50201 0.0543,-0.1199 0.123,-0.0572 0.12678,0.0355 0.14442,0.3107 c 0.24471,0.52647 0.73822,0.61718 1.48044,0.27218 l 1.56464,-0.66432 0.67319,-0.31293 c 0.77466,-0.88486 1.75748,-1.60415 2.94855,-2.15775 0.49624,-0.23067 1.21641,-0.32404 2.16045,-0.28007 0.40223,-0.21846 0.63192,-0.39607 0.68904,-0.53283 l -0.0636,-0.0173 -0.0181,-0.0388 c -0.13639,-0.29342 -0.13436,-1.25997 0.006,-2.89958 l -0.0451,-0.0971 0.0842,-0.0392 0.88137,2.91214 2.54551,5.47616 c 0.0641,0.13814 0.41535,0.44189 1.05342,0.91147 z m -6.47778,-3.53808 -1.28815,0.59878 0.97488,2.09725 0.82207,-0.38214 c 0.29345,-0.1364 0.45174,-0.34905 0.4749,-0.63795 l -0.47541,-1.02272 c -0.22666,-0.48763 -0.3961,-0.70537 -0.50832,-0.6532 z m -4.91948,2.28674 -0.0388,0.018 c -0.85875,0.39918 -1.23397,0.71528 -1.12565,0.94831 l 0.37337,0.90486 0.2768,0.59553 0.0389,-0.0181 c -0.0628,-0.48508 0.0898,-1.28018 0.45766,-2.3853 l 0.0389,-0.018 z"
         style="font-size:22.5778px;font-family:'Metal Macabre';-inkscape-font-specification:'Metal Macabre';fill:#efc093;fill-opacity:1;stroke:#ffffff;stroke-width:0.441513"
         id="path1-78-9" /></g></g></svg>
