<svg version="1.2" xmlns="http://www.w3.org/2000/svg" viewBox="0 0 163 58" width="163" height="58"><style>.a{fill:#fca}</style><path class="a" d="m72.9 27.2c-38.9 7.3-25.2-0.4-25.2-0.4 0 0-13.1 3.7-17.3 6.1-4.2 2.3-35.3 10.8-8.4 4.3 26.9-6.4 47.9-5.8 27.5-1-20.3 4.9-24.5 5.8-24.5 5.8l71.2-11.4c0 0 35.3-5.4 9.6-0.3-25.8 5 19.7 0.1 19.7 0.1 0 0 38.9-4.3 22.1-2.3-16.7 2.1-26.3 0.7-21.5-0.1 4.8-0.8 17.4-4.6 17.4-4.6 0 0 5.9-1.9 7.1-2.1 1.2-0.3-27.5 4.7-27.5 4.7 0 0 2.4 0.9 0 0-2.4-0.9-2.4-2-0.6-3.1 1.8-1 13.8-4.6 22.2-4.7 8.3-0.1-44.3-2.8-11.4-1.1 32.9 1.7-44.9 1.8-40.1 4.6 4.8 2.8-20.3 5.5-20.3 5.5z"/><path fill-rule="evenodd" d="m39 10.8c-1.1 0.9-1.6 1.8-1.5 2.6 0 0.1 0 0.4 0 0.4 0 0-0.2 0.1-0.2 0.1 0 0.2 0 0.5 0 0.5 0 0-0.1 0-0.1 0-0.4-1.6-1-2.4-1.7-2.5q0-0.1-0.7-0.1c-0.8-0.1-2.3-0.3-2.3-0.3q-1.5 0.9-1.7 1.9c0 0 0.1 0.1 0.1 0.1 1.6 0.1 4.7 0.4 4.7 0.4 0 0 0.1 0.1 0.1 0.1 0 0 0 0 0 0q-0.8 1.2-1.2 2.4c0 0 0.1 0 0.1 0q0.9 0 1.2-0.9 0-0.8 0.2-0.7c0 0 0.2 0 0.2 0 0 0 0.1 0.1 0.1 0.1 0.2 1.4 0.5 4.3 0.5 4.3-0.1 0.1-0.2 0.2-0.2 0.2 0-0.1-0.2-0.1-0.2-0.1q-0.1 0-0.5-1.3-0.5-0.7-1.8-0.8c-1.1-0.1-3.3-0.2-3.3-0.2 0 0.1 0 0.1 0 0.1 0.1 1.2 1.1 2.8 3 4.7q1.8 1.5 2.4 1.5c1 0.1 1.8-0.8 2.6-2.5 0.1 0 0.4 0 0.4 0 0 0 0 0 0 0 0.1 0 0.1 0 0.1 0-0.3 1.1-0.9 3.5-0.9 3.5 0.4 0.2 1.2 0.5 1.2 0.5 0 0.1 0 0.2 0 0.2-1-0.2-2.9-0.7-2.9-0.7-3.1 0-9.6 0-9.6 0 0 0-0.1-0.1-0.1-0.1 0-0.1 0-0.2 0-0.2 0-0.1 0.1-0.2 0.1-0.2 0.2 0 0.5 0 0.5 0q1.4 0 1.3-1.7c0-0.8 0-2.3 0-2.3 0-0.3-0.1-1-0.1-1-0.9-1.4-1.4-2.9-1.5-4.5q0-1 0.9-2.3-0.1-0.8-0.4-1c0 0 0 0.1 0 0.1-0.1 0-0.1-0.1-0.1-0.1q-0.8 0-4.1-1.6c-0.1 0-0.2 0-0.2 0 0 0 0-0.1 0-0.1 1.6 0.3 4.7 0.8 4.7 0.8 3.1 0.3 9.1 1 9.1 1q0.3 0 1.8-0.3 0 0 0 0zm-8.5 3.7c0.1 0.6 0.2 1.7 0.2 1.7 1.2 0.1 3.6 0.2 3.6 0.2-0.1-0.3-0.1-1-0.1-1q-0.1-0.6-0.7-0.9c-0.6 0-1.7-0.1-1.7-0.1q-1.3-0.1-1.3 0.1zm0.6 6.9q0 0 0 0 0 0 0 0 0 0 0 0zm0 0q0.1 2 0.7 2c0.5 0 1.5 0 1.5 0 0.4 0 1.1 0 1.1 0q0 0 0 0-1.1-0.3-3.2-2 0 0 0 0c0 0-0.1 0-0.1 0q0 0 0 0zm21.1-9.7c0 0 0.1 0 0.1 0q-0.1 0.5-0.1 0.8c1.5 0.3 3.7 0.7 3.7 0.7 2.8 0.3 8.3 0.8 8.3 0.8q0.4 0 1.7-0.3 0 0 0 0c-1 0.8-1.5 1.5-1.4 2.2 0 0.1 0 0.3 0 0.3-0.1 0.1-0.2 0.2-0.2 0.2 0 0.1 0 0.4 0 0.4 0 0-0.1 0-0.1 0-0.4-1.4-0.9-2-1.5-2.1q0 0-0.7-0.1c-0.7-0.1-2-0.2-2-0.2q-1.4 0.8-1.5 1.6c0.1 0 0.2 0.1 0.2 0.1 1.3 0.1 4.1 0.3 4.1 0.3 0 0 0 0 0 0q0.1 0 0.1 0-0.7 1.1-1.1 2c0 0 0.1 0 0.1 0q0.8 0.1 1.1-0.6-0.1-0.7 0.1-0.7c0.1 0 0.2 0 0.2 0 0 0 0.1 0.1 0.1 0.1 0.1 1.1 0.3 3.6 0.3 3.6 0 0.1-0.1 0.1-0.1 0.1 0 0-0.2 0-0.2 0q-0.1 0-0.4-1.1-0.4-0.6-1.6-0.7c-0.9 0-2.8-0.2-2.8-0.2 0 0.1 0 0.1 0 0.1 0.1 1 0.9 2.3 2.5 4q1.6 1.3 2 1.3c0.9 0 1.7-0.8 2.4-2.2 0.1 0 0.3 0 0.3 0 0 0 0 0.1 0 0.1q0.1 0 0.1 0c-0.3 0.9-0.9 2.9-0.9 2.9 0.4 0.1 1.1 0.5 1.1 0.5 0 0 0 0.1 0 0.1-0.9-0.2-2.6-0.6-2.6-0.6-2.6-0.1-8.1-0.3-8.1-0.3 0 0-0.1-0.1-0.1-0.1 0 0 0-0.1 0-0.1 0-0.1 0.1-0.2 0.1-0.2 0.2 0 0.5 0.1 0.5 0.1q1.2 0 1.1-1.4c0-0.7 0-1.9 0-1.9 0-0.3-0.1-0.8-0.1-0.8-0.7-1.2-1.2-2.5-1.4-3.8q-0.1-0.8 0.7-1.9-0.2-0.6-0.4-0.8c0 0.1-0.1 0.1-0.1 0.1q0 0 0 0-0.7-0.1-3.5-1.3 0 0.1 0 0.2c0.1 0.3 0.2 0.7 0.2 0.7 0.2 0.5 0.7 1.5 0.7 1.5 0 0-0.1 0-0.1 0-0.2-0.2-0.6-0.7-0.6-0.7q-0.1 0-0.1 0c0 0.1 0.1 0.2 0.1 0.2 0 0.4 0.2 1.3 0.2 1.3 0 0 0 0 0 0-0.1 0-0.2 0-0.2 0q-0.2 0-0.4-0.7-0.8-1.1-1.9-1.2c-0.5 0-1.7-0.2-1.7-0.2 0 0.2 0.1 0.5 0.1 0.5 0.3 1.5 0.8 5.3 0.8 5.3 0.1 0.8 0.2 2.7 0.2 2.7q0 1.1 0.6 1.4c0.4 0.3 1.2 0.9 1.2 0.9-0.2 0-0.6 0.1-0.6 0.1-1.8 0-5.6-0.2-5.6-0.2q0 0 0 0 1.8-1.1 1.7-2.5c-0.1-2.4-0.6-6.2-0.6-6.2 0-0.1 0.1-0.4 0.1-0.4-0.2-0.7-0.5-1.8-0.5-1.8-0.5-0.1-1.7-0.2-1.7-0.2q-1.3-0.2-1.6 0.8-0.1 0.8-0.2 0.8c-0.1 0-0.2 0-0.2 0 0-0.1-0.1-0.2-0.1-0.2-0.1-0.4-0.1-1.2-0.1-1.2q0 0 0 0-0.1 0-0.1 0-0.6 0.7-0.8 0.7c0 0 0-0.1 0-0.1q0.6-1.3 0.4-2.7c0-0.3-0.1-0.8-0.1-0.8 0 0 0 0 0 0q1.4 0.7 1.9 0.7c2 0.3 5.8 0.7 5.8 0.7q2.5 0.3 2.5 0 0.4-0.2 0.7-0.4 0 0 0 0zm-8.7 0.9c0.5 0.1 1.4 0.2 1.4 0.2q1.1 0 2.1-0.2c0-0.1 0-0.2 0-0.2-0.2-0.1-0.6-0.1-0.6-0.1q-1.5-0.2-2.9 0.3 0 0 0 0 0 0 0 0 0 0 0 0 0 0 0 0zm5-0.1c0 0.2-0.1 0.7-0.1 0.7 0.9 0.1 2.6 0.2 2.6 0.2q-1.1-0.7-2.2-0.8c0 0-0.3-0.1-0.3-0.1zm9.8 4.4c0.1 0.4 0.2 1.4 0.2 1.4 1 0 3.1 0.2 3.1 0.2 0-0.3-0.1-0.9-0.1-0.9q0-0.5-0.6-0.7c-0.5 0-1.5-0.1-1.5-0.1q-1.1-0.1-1.1 0.1zm0.5 5.6q0 0.1 0 0.1 0.1 1.6 0.6 1.6c0.4 0 1.3 0.1 1.3 0.1 0.3 0 0.9 0 0.9 0q0 0 0 0c-0.6-0.2-1.5-0.8-2.7-1.7q0-0.1 0-0.1c0 0-0.1 0-0.1 0q0 0 0 0zm7.9-8.5c1.4 0.1 4.3 0.2 4.3 0.2 2.4 0.2 4.4 0.4 5.9 0.9 0.4 0.1 1.1 0.8 1.9 2 0.1 0.1 0.1 0.1 0.1 0.1-0.3-0.1-0.7-0.4-0.7-0.4q0 0 0 0-0.5 0-1.5 0.2c0 0.1 0 0.2 0 0.2q0 0.5-0.5 1.2c0.6 0 1.3 0.7 2.1 1.9 0.2 0.5 0.5 1.6 0.5 1.6q0 1-1.2 2.5 0.5 0.5 1.8 0.8c0 0.1 0 0.2 0 0.2 0 0-0.1 0.1-0.1 0.1-0.8 0-2.5 0-2.5 0-0.5 0.4-1.4 1.4-1.4 1.4-0.2 0-1.1 0.6-2.8 1.9q-0.1 0-0.1 0c0.2-0.2 0.6-0.6 0.6-0.6 0 0-0.1 0-0.1 0q-0.8 0.5-0.9 0.5c2.4-2.2 3.6-3.5 3.6-3.9-1.2-1.8-3.9-5-3.9-5-0.2-0.1-0.8-0.1-0.8-0.1 0.1 0.1 0.1 0.3 0.1 0.3 0.1 0.8 0.2 2.6 0.2 2.6 0 0 0 0.2 0 0.2q-0.1 0.6 0 2 0.4 0.2 0.7 0.2c0.1 0 0.4 0 0.4 0 0.1 0.1 0.1 0.2 0.1 0.2 0 0 0 0.1 0 0.1 0 0-0.1 0.1-0.1 0.1-0.2 0-0.7 0-0.7 0 0.4 0.4 1.3 1.2 1.3 1.2q-0.1 0-0.1 0-2-1.1-2.3-1.1c-0.2 0-0.6-0.1-0.6-0.1q-0.9 0-2.6 0.4 0 0 0 0c0.2-0.2 0.6-0.5 0.6-0.5q-0.7 0-0.7-0.1c0 0 0-0.2 0-0.2 0 0 0.1-0.1 0.1-0.1 0.2 0 0.5 0 0.5 0q1 0 1-0.8c0-1.5-0.2-3.6-0.3-5.2-0.1-1.7-0.2-2.8-0.2-2.8q0-0.1-0.4-0.2-0.4 0-1.9 0.3 1.4-1 2.3-1.2-0.3-0.6-1-0.7c-0.3 0-0.7 0-0.7 0 0 0-0.1-0.1-0.1-0.1 0-0.1 0-0.2 0-0.2 0 0 0.1 0 0.1 0q0 0 0 0zm4 3.1c0.1 0.6 0.3 2.1 0.3 2.1q1.7 0 2.5-0.5 0 0 0 0-0.8-0.3-1.4-0.4 0-0.1 0-0.1 1.2-0.8 2.5-1.1c0 0-0.1-0.1-0.1-0.1q0-1.2-1.1-1.8-1.8-0.1-2.3 0.8-0.3 0.5-0.4 1.1 0 0 0 0zm3.1 2.5c1.1 1.3 3.1 4.2 3.1 4.2 0.1 0 0.2 0 0.2 0q0.3-0.8 0.3-1.2c0-1.2-0.9-2.2-2.6-3.3-0.1 0.1-1 0.3-1 0.3zm6.3-5c1.7 0 4.8 0 5.9 0q0 0 0 0c0-0.1 0.1-0.1 0.1-0.1 1.1 0 3.3-0.1 3.3-0.1 0.1 0.1 0.3 0.2 0.3 0.2q0.1-0.1 0.4-0.1c1.4 0.2 3.2 0.7 5.1 1.8q0 0.1 0.9 0.8c0 0 0.1 0 0.1 0 0.1-0.6 0.2-1.8 0.2-1.8q0.1-0.9-2-0.8c0 0 0-0.1 0-0.1 0.1 0 0.2 0 0.2 0q0.8 0 0.9-0.2c0 0 0 0 0 0 1.2-0.1 3.7-0.3 3.7-0.3 0 0 0.2 0 0.2 0q0 0 0 0 0.6 0 0.6 0c0 0.1 0 0.2 0 0.2-0.1 0-0.2 0.1-0.2 0.1-0.2 0-0.6 0-0.6 0q-1 0.1-1.2 0.9c-0.1 0.6-0.3 1.7-0.3 1.7-0.2 1.4-0.4 3.2-0.5 5.2-0.1 1-0.1 1.9-0.1 2.6q1-0.8 2.3-2.2-0.2-0.9-0.1-1.6c0-0.2 0-0.7 0-0.7 0.3-2.1 1.7-3.8 4.6-5.5q1.5-0.7 1.8-0.7 0-0.1 0-0.1c-0.5 0.1-1.3-0.3-2.7-1q-0.6-0.2-0.6-0.3 0 0 0 0 0 0 0.1 0c1.3 0.2 4.1 0.7 4.1 0.7 0.2-0.1 0.4-0.1 0.4-0.1q0 0 0 0.1c0 0-0.1 0-0.1 0q0 0 0 0c0.6 0 1.6-0.1 1.6-0.1 0.9-0.1 2.8-0.3 2.8-0.3 0.1 0 0.5 0.3 1.2 1q-0.1 0-0.1 0c0 0 0 0.1 0 0.1q-1.2-0.4-1.6-0.4-0.4 0.1-0.5 0.4c-0.2 1.5-0.6 3.5-0.9 5.8-0.2 2.2-0.3 4.1-0.3 4.1q-0.1 0.6 1 0.7c0 0 0 0.1 0 0.1q-0.1 0.3-0.3 0.3 0 0 0 0c0.4 0.4 1.2 1.2 1.2 1.2q0 0 0 0-1.6-1.2-3.1-1.2c-1.1 0.1-3.2 0.1-3.2 0.1 0 0 0 0 0 0q-0.1 0-0.1 0 0-0.4 0.8-0.4 1.1-0.4 1.1-0.9c0.1-1.1 0.3-3 0.3-3-1.7 0.1-5.1 0.3-5.1 0.3 0 0 0 0 0 0 0.5 2.1 1.1 3.2 1.7 3.2-0.1 0-0.1 0.1-0.1 0.1 0 0 0 0.1 0 0.1 0.2 0.2 0.8 0.6 0.8 0.6 0 0 0 0.1 0 0.1-0.2 0-0.4 0-0.4 0-0.2 0-0.4 0-0.4 0q0 0.1 0 0.1c1.2 1.8 1.8 2.9 1.8 3.2-2.1-2-3.2-2.9-3.4-2.9-0.1 0-0.4-0.1-0.4-0.1-1.3 0.1-3.8 0.5-3.8 0.5 0-0.1 0-0.2 0-0.2 0.5-0.1 1.6-0.4 1.6-0.4q0-0.1 0-0.1c-0.6 0-1.4 0-2.1 0.1q0 0.2 0 0.2c0 0-0.1 0.1-0.1 0.1 0 0-0.1 0-0.1 0q-0.1-0.1-0.3-0.3c-0.4 0-0.6 0-0.6 0 0 0 0-0.1 0-0.1q0-0.2 0.3-0.3-0.3-0.4-0.6-0.8c0 0 0 0 0 0q-0.9 1.1-2.5 2c-0.4 0.3-1.1 0.9-1.1 0.9q-0.1 0-0.1 0c0.1-0.1 0.3-0.4 0.3-0.4-0.4 0.3-1.2 0.7-1.2 0.7 2.2-2 3.5-3.3 3.9-4.1 0 0 0 0 0 0-0.9-1.2-2-2.5-3.1-3.8-1.1-1.2-1.9-2.1-1.9-2.1-0.1 1.5-0.4 5.2-0.4 5.2 0 0.3 0 1 0 1q0 0.8 0.5 1.2c0.3 0.2 0.9 0.6 0.9 0.6q0 0 0 0.1c-0.1 0-0.4 0-0.4 0 0 0-0.1 0.1-0.1 0.1-1.4 0-4 0-4 0-0.1 0-0.1-0.1-0.1-0.1 0-0.1 0-0.2 0-0.2 0 0 0.1-0.1 0.1-0.1 0.1 0 0.5 0 0.5 0q1 0 1.1-1.6c0-1.4 0.1-3.3 0.2-4.9 0.1-1.5 0.2-2.6 0.2-2.6-0.6 0.1-1.7 0.6-3.2 1.6-0.1 0.1-0.3 0.2-0.3 0.2 0 0-0.1 0-0.1 0q2-1.6 2.8-2.5c0 0 0.1 0 0.1 0 0.1 0 0.3 0.1 0.3 0.1q0.1 0 0.1 0-0.8-0.7-2.1-0.7c-0.6 0.3-1.3 0.6-1.3 0.6-0.1 0.1-0.2 0.2-0.2 0.2 0.4 0 1.1 0 1.1 0 0 0 0.1 0 0.1 0 0 0.1 0 0.1 0 0.1 0 0-0.1 0.1-0.1 0.1-0.1 0-0.4 0-0.4 0q-0.9 0-0.9 0.3c0 0.3-0.1 0.8-0.1 0.8 0 2-0.1 7-0.1 7q0.5 0.2 0.9 0.2c0.1 0 0.3 0 0.3 0 0 0 0.1 0.1 0.1 0.1 0 0 0 0.1 0 0.1 0 0-0.1 0.1-0.1 0.1-0.4 0-1.3 0-1.3 0 0.1 0.1 0.1 0.3 0.1 0.3 0 0.1 0 0.1 0 0.1q1.4 0.6 1.5 0.6c0 0.1 0 0.1 0 0.1-1.6 0-4.9 0-4.9 0 0 0 0-0.1 0-0.1q0.8 0 1.2-1c-0.5 0-1.5 0-1.5 0 0-0.1-0.1-0.1-0.1-0.1 0-0.1 0-0.1 0-0.1 0.1-0.1 0.1-0.1 0.1-0.1 0.2 0 0.4 0 0.4 0q1.2 0 1.2-1c0-2 0.1-5.6 0.1-5.6 0-1.1-0.2-1.5-0.4-1.5q-0.4-0.2-0.9-0.2c-0.1 0-0.3 0-0.3 0-0.1 0-0.2-0.1-0.2-0.1 0 0 0-0.1 0-0.1 0.1 0 0.2 0 0.2 0 0.4 0 1.3 0 1.3 0q-0.2-0.2-1.7-0.9c0 0 0 0 0 0q0 0 0 0zm11.7 2.1q0 0 0 0c1.3 1.3 3.8 4.4 3.8 4.4q0 0 0 0c0-0.1 0-0.2 0-0.2 0.1-1.5-0.8-2.8-2.9-3.9 0 0-0.9-0.3-0.9-0.3q0 0 0 0zm4.6 5c0 0.2-0.1 0.4-0.1 0.4 0.1 0 0.1 0 0.1 0 0-0.1 0-0.4 0-0.4 0 0 0 0 0 0q0 0 0 0zm5.3-2.5c0 0.3-0.1 0.7-0.1 0.7q0.2 0 0.8-0.7c0 0 0 0 0 0 0.7-0.7 2.1-2 2.1-2q0.1-0.1 0.1-0.1-0.1 0-0.1 0-1.5 0.9-2 2c-0.1 0-0.1 0-0.1 0 0 0 0-0.1 0-0.1 0.7-1.5 1.4-2.4 1.8-2.8 0.1 0 0.1-0.1 0.1-0.1 0 0 0.1 0 0.1 0 0.5 0 1.4 0 1.4 0q1.9-1.6 1.9-1.8c0-0.1 0.1-0.4 0.1-0.4q-1.8 0.2-3.2 1.2c-1.8 1.3-2.7 2.6-2.9 4.1q0 0 0 0zm5.2-3.2q0 0 0 0 0 0 0 0 0 0 0 0zm0 0c0.1 0 0.4 0 0.4 0 0-0.1 0-0.1 0-0.1 0.1 0 0.1 0 0.1 0 0-0.2 0-0.4 0-0.4 0 0-0.5 0.4-0.5 0.5q0 0 0 0zm-4.5 4.2c1.5-0.1 4.4-0.2 4.4-0.2 0.2-1.3 0.5-3.4 0.5-3.4-0.4 0.1-1.2 0.1-1.2 0.1q-1.9 1.7-3.7 3.5 0 0 0 0zm-3.5 4.1q0.1 0.5 1.1 0.5c0.1 0 0.1 0 0.1 0 0-0.1 0.1-0.3 0.1-0.3q0-0.4-0.4-1.4c0 0-0.1 0-0.1 0q-0.8 0.8-0.8 1.2 0 0 0 0zm14.4-11.6c1.5-0.2 4.5-0.5 4.5-0.5 2.5-0.3 4.6-0.4 6.1 0 0.4 0.1 1 0.7 1.8 2.1-0.1 0-0.1 0.1-0.1 0.1-0.2-0.1-0.6-0.4-0.6-0.4 0 0-0.1 0-0.1 0q-0.5 0.1-1.7 0.5c0 0.1 0 0.2 0 0.2q-0.1 0.6-0.8 1.4c0.6 0.1 1.3 0.7 2 2.2 0.1 0.6 0.3 1.9 0.3 1.9q-0.2 1.2-1.7 3.1 0.6 0.5 2.1 0.8c0 0.1 0 0.3 0 0.3-0.1 0-0.2 0.1-0.2 0.1-1 0-2.9 0.1-2.9 0.1-0.6 0.6-1.7 1.7-1.7 1.7-0.1 0-1.2 0.8-3.2 2.3q0 0 0 0c0.2-0.2 0.6-0.7 0.6-0.7 0 0-0.1 0-0.1 0q-0.8 0.6-1 0.6c2.7-2.6 4.2-4.1 4.2-4.7-1.3-2-3.6-5.5-3.6-5.5-0.3 0.1-0.9 0.1-0.9 0.1 0 0.1 0 0.3 0 0.3-0.1 0.9-0.2 2.9-0.2 2.9 0 0.1 0 0.3 0 0.3q-0.2 0.6-0.3 2.2 0.4 0.3 0.8 0.2c0.1 0 0.5 0 0.5 0 0 0.1 0.1 0.1 0.1 0.1 0 0.1 0 0.2 0 0.2-0.1 0.1-0.2 0.1-0.2 0.1-0.2 0.1-0.8 0.1-0.8 0.1 0.5 0.4 1.4 1.3 1.4 1.3q-0.1 0-0.1 0-2.1-1.2-2.5-1.2c-0.2 0-0.7 0-0.7 0q-0.9 0-2.7 0.6 0 0 0 0c0.2-0.2 0.6-0.6 0.6-0.6q-0.7 0-0.7-0.1c0 0 0-0.2 0-0.2 0 0 0.1-0.1 0.1-0.1 0.2 0 0.5 0 0.5 0q1.1-0.1 1.2-1c0.1-1.7 0.4-3.9 0.6-5.7 0.3-1.8 0.6-3.1 0.6-3.1q0-0.1-0.5-0.1-0.4 0-2.1 0.6 1.8-1.3 2.9-1.7-0.2-0.7-0.9-0.6c-0.3 0-0.7 0.1-0.7 0.1 0 0-0.1-0.1-0.1-0.1 0 0 0-0.1 0-0.1 0 0 0.2-0.1 0.2-0.1q0 0 0 0zm0 0q0 0 0 0 0 0 0 0zm3.4 2.7c-0.1 0.8-0.3 2.4-0.3 2.4q1.9-0.2 2.8-0.9 0.1 0 0.1 0-0.8-0.3-1.5-0.3 0 0 0-0.1 1.6-1.1 3-1.6c0.1-0.1 0.1-0.2 0.1-0.2q0.2-1.3-0.8-1.8-1.9 0.2-2.7 1.3-0.5 0.6-0.7 1.2 0 0 0 0zm2.7 2.5q0 0 0 0 0 0 0 0 0 0 0 0zm2.9 4.7c0.1 0 0.2 0 0.2 0q0.5-1 0.5-1.5 0.2-2.1-2.5-3.6c0 0-1.1 0.4-1.1 0.4 0.9 1.4 2.9 4.7 2.9 4.7zm5.3-11.6c2.3-0.2 7-0.7 7-0.7q-0.1 0-0.1 0c-0.6 0.4-1.9 1.1-1.9 1.1-0.1 0-0.2 0.2-0.2 0.2 0.4-0.1 1.2-0.2 1.2-0.2 0.1 0.1 0.2 0.1 0.2 0.1 0 0.1 0 0.1 0 0.1-0.1 0.1-0.2 0.1-0.2 0.1-0.2 0.1-0.4 0.1-0.4 0.1q-1 0.1-1.1 0.5c-0.1 0.3-0.2 0.9-0.2 0.9-0.2 1.5-0.5 3.4-0.7 5.4-0.3 2-0.4 3.6-0.4 3.6q0.6 0.2 1.1 0.2c0.1 0 0.4 0 0.4 0 0 0.1 0.1 0.2 0.1 0.2 0 0 0 0.1 0 0.1 0 0-0.2 0.1-0.2 0.1-0.5 0-1.5 0.1-1.5 0.1 0 0.1 0.1 0.4 0.1 0.4 0 0 0 0.1 0 0.1q1.6 0.8 1.8 0.8c0 0 0 0.1 0 0.1-2.1 0-6.1 0.1-6.1 0.1 0 0 0.1-0.1 0.1-0.1q0.9 0 1.5-1.4c-0.6 0-1.7 0.1-1.7 0.1-0.1-0.1-0.2-0.2-0.2-0.2 0 0 0-0.1 0-0.1 0.1 0 0.2-0.1 0.2-0.1 0.1 0 0.4 0 0.4 0q1.4-0.1 1.5-1.3c0.2-1.3 0.4-3 0.6-4.5 0.2-1.4 0.4-2.5 0.4-2.5 0.2-1.3 0.1-1.9-0.2-1.9q-0.4-0.2-1-0.1c-0.1 0-0.3 0-0.3 0-0.1 0-0.1 0-0.1 0 0-0.1 0-0.1 0-0.1 0-0.1 0.1-0.1 0.1-0.1 0.5-0.1 1.5-0.2 1.5-0.2q-0.2-0.2-1.7-0.8c0 0 0-0.1 0-0.1q0 0 0 0zm0 0q0 0 0 0z"/><path fill-rule="evenodd" d="m17.6 0.1q0 0 0 0 0 0 0 0 0 0 0 0zm0 0c-0.7 0.3-1.4 0.6-2.1 0.9 0 0-2.1 1.4-3 2.3q0 0.1 0 0.1c0 0 0 0 0 0.1q-0.7 0.7-1 1.5c0 0 0 0.1 0 0.1 0 0-0.1 0.2-0.1 0.3 0 0-0.1 0.9-0.1 1.3 0 0 0.4-0.1 0.6-0.2 0 0 0.1 0 0.2 0 2.4 0.6 4.4 1.4 5.8 2.4q0 0 0 0.1-1.7-0.4-2.7-0.4c0 0-0.2 0-0.3 0-1.6-0.1-2.8 0.7-3.5 2.3 1 2.4 1.6 3.8 1.9 4.8 0.1-0.1 1-1.8 2.8-4.6 0 0 0.1 0 0.2 0 0 0-0.4 1.3-0.6 2q0 0.1 2.4 0.9c1.9-3.8 2.9-5.5 2.9-6 0 0 0-0.1 0-0.1q-0.4-0.4-1-0.5c0 0 0-0.1 0-0.1 0 0 1.2 0.1 1.8 0.1 0 0 0.2 0 0.4 0q0.6 0.1 3.3 1.1c0 0 0.2-0.1 0.3-0.2 0 0 1.9 1 2.8 1.5q-0.3-0.1-3.1-1.2c0 0-0.1 0.1-0.2 0.1 0 0-0.4-0.1-0.6-0.1q0 0 0 0c0 0-0.2 0-0.2 0q-1.7 0.1-1.8 0.8 0.3 0.7 1.5 0.8c0 0-0.5 1.3-0.7 2 0 0-0.9 2.2-1.3 3.4 0 0 1.3 0.4 1.9 0.5 0 0 0.4 0 0.6 0.1 0.2 0 0.8-0.6 2-1.5 0 0 0 0 0 0 0 0-0.5 1-1.3 2.5-0.8 1.6-1.5 3-2.2 4.5 0 0-0.1 0-0.2 0 0 0 0-1.5 0.1-2.2 0 0 0-0.1-0.1-0.2q-0.7-0.7-2.1-1.2c0 0-1.6 3.9-2.4 6 0 0 1 2.9 1.5 4.3 0 0-0.2 0-0.2 0 0 0-2.4-3.1-3.7-4.7 0 0 0 0.1-0.1 0.1q-0.2 0-1.3-1.8c-4.6-5.5-6.4-9-6.1-11.5 0.2-1 0.7-2 1.6-2.8 0 0-0.1-0.2-0.1-0.3 0 0 0.6-2.1 0.9-3 0 0 0.3-0.5 0.5-0.8 0.2-0.5 2.1-2.6 6-3.5 0 0 0.1 0 0.1 0zm-0.6 16.7q0-0.2-2.3-0.9-1 0.3-1 0.5c0 0 1.2 2.1 1.9 3.2 0 0 0.1 0 0.2 0 0 0 0.8-1.9 1.2-2.8q0 0 0 0z"/><path  d="m138.7 7.6c-1.2 0.2-3.4 0.5-3.4 0.5q-0.9 0.6-3.2 1.6-2.2 1.3-2.3 1.7c0 0.1 0 0.2 0 0.2 0 0.1 0.1 0.1 0.1 0.1q1.4-1.1 2.8-1.7 2.7-1.1 3.9-1.2c0.1 0 0.2 0 0.2 0q1.3 0 1.3 0.6 0 0.5-1.1 0.7c-0.2 0-0.6 0-0.6 0 0 0-0.1 0-0.1 0-0.2 1.9-0.5 3.9-0.8 6.7-0.3 2.5-0.5 4.6-0.5 4.6-0.1 1-1.2 2.2-3.3 3.4 0 0.1 0 0.1 0 0.1 0 0 0 0 0 0q2.6-1.4 4.8-1.3c1.3 0 3.8 0 3.8 0 0 0 0-0.1 0-0.1q-1.1-0.7-1-1.5c0-0.6 0-1.6 0-1.6 0.2-1.4 0.4-4 0.4-4q0.6-1.8 1.1-1.8c0.1 0 0.3 0 0.3 0 1.7-0.1 5-0.2 5-0.2 0.1 0.5 0.2 1.3 0.2 1.3 0.1 0 0.2 0 0.2 0 0.1-1.4 0.2-4 0.2-4 0 0-0.2 0-0.2 0 0 0.1 0 0.4 0 0.4q-0.3 0.4-0.7 0.6c-1.2 0-3.7 0.1-3.7 0.1q-1.7 0.1-1.6-0.9-0.3-0.2-0.3-0.6c0.1-0.8 0.2-2.2 0.2-2.2q0-0.4 0.3-0.9c2.5 0.2 4.4 0.7 5.6 1.8 1.9 1.4 2.9 3.4 2.8 5.6-0.1 1.7-1.1 3.6-2.9 5.9-0.1 0-0.1 0-0.1 0-0.1-0.3-0.3-0.9-0.3-0.9 0.3-0.4 0.8-1.2 0.8-1.2 0 0-0.1 0-0.1 0-1.5 0.8-4.6 2.4-4.6 2.4 0 0.1 0 0.2 0 0.2 0 0 0.1 0 0.1 0 0.5-0.1 1.6-0.2 1.6-0.2q1.1 1 1.1 1.4c-2.9 3.9-6.7 6.6-11.2 8q-5.7 1.8-12.3 3.3c0 0.1 0 0.2 0 0.2 6.5-1 11.4-2.1 13.9-3.2 2.8-0.7 6.2-2.7 11.2-6q1.1 1.5 1 1.9c-0.3 0.3-0.9 0.9-0.9 0.9 0 0 0.1 0 0.1 0 1.2-0.7 3.8-2 3.8-2 0 0 0-0.1 0-0.1-0.2 0-0.5 0.1-0.5 0.1q-1-0.2-1.9-2c0.1 0 0.1 0 0.1 0 2.4 0.4 7.3 1.5 7.3 1.5 0-0.1 0.1-0.2 0.1-0.2-3.3-1.3-4.9-1.9-4.9-2 0-0.1-0.1-0.4-0.1-0.4 0 0 0-0.2 0-0.2q0.1-0.6 1.6-2.4 1-1.6 1.1-3.7c0.3-4.2-2.7-7.3-7.9-8.9-2.5-0.5-4.7-0.6-6.5-0.4q0 0 0 0z"/><path fill-rule="evenodd" d="m36.4 21.5c2.2 0.2 5.1 1.3 8.5 3.1q1.9 1.1 2.3 1.5c0 0.1 0 0.4 0 0.4 0 0 0 0 0 0 0.2 0 1.4-0.5 3.4-1.3 0 0 0 0 0 0q-2.1 2.5-4.3 4.6c0 0-0.1 0-0.1 0 0 0 0-0.1 0-0.1q0.1-1.3-1.9-2.1c-0.2-0.1-0.7-0.2-0.7-0.2-0.6 0-1.8 0-1.8 0-1.6-0.1-3.3 0.9-5.1 3q-1.1 2-1.1 3c0.1 0 0.1 0 0.1 0q3-1 5.8-1.6c0 0 0-0.1 0-0.1-0.5-0.2-1.6-0.5-1.6-0.5 0-0.1 0-0.2 0-0.2 1.8 0.3 5.2 0.7 5.2 0.7q0 0.1 0.5 0.2 3.4-0.4 5.3-1c-0.9 0.4-2.7 1.2-2.7 1.2q-0.8 0.7-0.9 2.4c0 1.3-0.2 4-0.2 4-0.2 1.7-0.5 5-0.5 5q-0.1 1.4 1 1.3c0.7-0.1 1.9-0.1 1.9-0.1 0.1 0 0.3 0 0.3 0 0 0 0 0.1 0 0.1-1 0.3-2.8 0.8-2.8 0.8q-4.8 0.2-6.5-0.2-2.1-0.6-3.3-1.5c0 0-0.1 0-0.1 0q-0.4 0.4-1.3 2c0.3 0.3 0.7 1 0.7 1 0 0-0.1 0.1-0.1 0.1-1-0.7-3-2.2-3-2.2 0 0 0 0 0 0 0.2 0 0.5 0.1 0.5 0.1q0.8-0.1 1.6-1.7 0.2 0 0.3-0.5c-0.1 0-0.1 0-0.1 0-2.3-2.1-3.7-4.2-4.1-6.1q-1.9 1-3.5 2.2c-1.1 0.4-2.5 1.4-4.2 3-0.6 0.9-1.9 2.6-1.9 2.6 0 0.3-0.8 1.5-2.3 3.9q0.1 0.4-1.3 2.2c0 0 0-0.2 0-0.2 1.5-3.7 2.9-6.4 3.9-7.9 1.5-1.7 4-3.9 7.6-6.3q1.5-0.6 1.5-0.9c-0.1-0.4-0.1-1-0.1-1q0-1.8 1.1-4c0.5 0 1.6 0 1.6 0q0.3-0.2 0.3-0.6c0-0.1 0-0.3 0-0.3q0-0.8-1.4-0.9c-2 0-4.1 0.7-6.4 2q-1.1 0.8-1.9 1.6c0 0-0.1 0-0.1 0 0-0.1 0-0.4 0-0.4 0-1 2.3-2.6 6.8-4.4 0.8-0.2 2.4-0.6 2.4-0.6 0-0.3-1.6-0.6-5-1 0 0 0-0.1 0-0.1 1.4 0.1 4.3 0.3 4.3 0.3 0.4 0 1.1 0 1.1 0q1.3-0.2 3.5-0.9c0.4-0.1 1.1-0.2 1.1-0.2 0.3 0 0.7 0 0.7 0q2.3 0.1 4.4 1.4c0.1 0 0.3 0 0.3 0 0.1-0.1 0.4-0.3 0.4-0.3 0-0.1 0-0.4 0-0.4-0.2-0.1-0.4-0.3-0.4-0.3-0.1 0-0.3 0-0.3 0-0.2 0.2-0.5 0.4-0.5 0.4-1.6-1.6-3.6-2.7-5.8-3.2-0.6-0.1-1.7-0.3-1.7-0.3-0.2 0-0.4 0.1-0.4 0.1 0 0-0.1-0.1-0.1-0.1 0 0 0-0.1 0-0.1q0.4-0.4 1.1-0.4 0 0 0 0zm-0.8 13.7c-0.1 1.7 0.5 3.5 1.7 5.4 0 0 0 0 0 0q0.9-1.3 0.9-1.8-0.6-1-0.6-1.2c1.3 0.9 3.8 2.6 3.8 2.6 0 0.1 0 0.1 0 0.1-0.4-0.1-1.4-0.2-1.4-0.2q-0.6 0.2-1.7 2 1.9 2.2 3.6 2.4c0.1 0 0.4 0 0.4 0 0.2 0 0.5 0 0.5 0 0.3-3 0.8-8.6 0.8-8.6 0.1-0.9 0.2-2.7 0.2-2.7-4 0.6-6.7 1.3-8.2 2q0 0 0 0zm0 0q0 0 0 0 0 0 0 0zm27-6.2q0 0 0 0zm-1.9 3.5c0 0.1 0 0.4 0 0.4-0.1 0.1-0.2 0.2-0.2 0.2 0 0.2-0.1 0.6-0.1 0.6 0 0-0.1 0-0.1 0-0.1-1.8-0.5-2.8-1.1-2.8q0-0.1-0.7-0.1c-0.6 0-2 0-2 0q-1.5 1.3-1.8 2.5c0.1 0 0.1 0.1 0.1 0.1 1.4 0 4.1-0.1 4.1-0.1 0 0.1 0.1 0.1 0.1 0.1q0 0 0 0-0.9 1.6-1.5 2.9c0 0 0.1 0 0.1 0q0.8 0 1.2-1.1 0.2-0.9 0.3-0.9c0.1 0 0.2 0 0.2 0 0 0 0.1 0.1 0.1 0.1-0.1 1.6-0.4 4.9-0.4 4.9 0 0-0.1 0.1-0.1 0.1-0.1 0-0.2 0-0.2 0q-0.1 0-0.2-1.4-0.3-0.8-1.5-0.7c-1 0-2.9 0.1-2.9 0.1 0 0 0 0.1 0 0.1-0.1 1.3 0.5 2.9 1.9 4.8q1.4 1.3 1.9 1.3 1.3-0.1 2.7-2.9c0.1 0 0.3 0 0.3 0 0 0 0.1 0 0.1 0q0 0 0 0c-0.4 1.2-1.2 3.7-1.2 3.7 0.3 0.1 1 0.5 1 0.5 0 0 0 0.1 0 0.1-0.9-0.2-2.6-0.5-2.6-0.5-2.7 0.2-8.3 0.7-8.3 0.7 0 0-0.1-0.1-0.1-0.1 0-0.1 0-0.2 0-0.2 0.1 0 0.2-0.1 0.2-0.1 0.1-0.1 0.4-0.1 0.4-0.1q1.2-0.1 1.4-1.8c0.1-0.8 0.2-2.4 0.2-2.4 0.1-0.3 0.1-1 0.1-1q-0.7-2.2-0.6-4.9 0.1-1.1 1.1-2.8 0-0.9-0.2-1.1c0 0-0.1 0.1-0.1 0.1q0 0 0 0c-0.5 0-1.6-0.5-3.6-1.6-0.1 0-0.2 0-0.2 0 0-0.1 0-0.1 0-0.1 1.4 0.2 4.2 0.5 4.2 0.5 2.8 0 8.2 0.1 8.2 0.1q0.3 0 1.7-0.7 0 0 0 0 0 0 0 0 0 0 0 0 0 0 0 0c-1.2 1.3-1.8 2.5-1.9 3.5zm-10.8 12.1c0.1 0 0.3-0.1 0.3-0.1 0 0.1 0 0.2 0 0.2-0.1 0-0.3 0-0.3 0 0 0 0-0.1 0-0.1zm4.4-10c0 0.6-0.1 1.9-0.1 1.9 1 0 3.1-0.1 3.1-0.1 0-0.4 0.1-1.2 0.1-1.2q0-0.6-0.4-0.9c-0.6 0-1.6 0-1.6 0q-1.1 0.1-1.1 0.3 0 0 0 0zm-0.6 7.4q0 0 0 0 0 0 0 0 0 0 0 0zm0 0q0 0 0 0-0.2 2 0.4 2c0.4 0 1.3-0.1 1.3-0.1 0.3 0 0.9 0 0.9 0q0-0.1 0-0.1-0.9-0.2-2.5-1.8 0 0 0 0c0 0-0.1 0-0.1 0q0 0 0 0zm9.5-12.6c1.5 0 4.2 0 4.2 0q3.4 0 5.6 1 0.4 0.1 1 1.4 0-0.1 0-0.1 1.2-1.2 1.4-1.7c0 0 0.1 0 0.1 0 0.1 0.1 0.2 0.2 0.2 0.2 0.2 0 0.5-0.1 0.5-0.1q0-0.2-0.9-0.3c0-0.1 0-0.3 0-0.3 0 0 0.1-0.1 0.1-0.1 0.7 0 1.9 0 1.9 0q0.3 0 0.9-0.3 0 0 0 0c0 0 0.1 0 0.1 0 1.2 1.6 2.3 3.1 3.1 4.4 0.1 0 0.2 0 0.2 0q1.4-1.7 2.9-4.1c0 0 0 0 0 0 0.1 0 0.1 0 0.1 0 0.6 0 1.8 0 1.8 0 0.7 0 2.1 0 2.1 0 0 0 0 0.1 0 0.1q0 0 0 0-0.7 0-0.7 0.3-1.2 0-1.2 1.1c-0.1 0.2-0.1 0.7-0.1 0.7 0 3.1 0.2 9.9 0.2 9.9 0 0.2-0.1 0.5-0.1 0.5q0.1 1.3 1.5 1.4c0 0.1 0 0.3 0 0.3-1.8 0-5.5 0-5.5 0q0-0.1 0-0.1c0.5-0.2 1.3-0.7 1.3-0.7q0.5-1 0.5-1.4c0-2.4-0.1-7.1-0.1-7.1 0-0.1 0-0.3 0-0.3 0 0-0.1 0-0.1 0-1 3.1-3 9.6-3 9.6 0 0-0.1 0-0.1 0-0.2 0-0.6-1.3-1.3-3.8-0.8-2.6-2.2-7.5-2.2-7.5-0.1 0-0.1 0-0.1 0-0.1 0.8-0.2 2.5-0.2 2.5 0 2-0.1 6.1-0.1 6.1 0 0.2 0.1 0.4 0.1 0.4-0.1 0.1-0.1 0.3-0.1 0.3q0 1.6 1.3 1.6 0 0.3 0.2 0.3c0.1 0 0.2 0 0.2 0 0 0 0 0.1 0 0.1-0.1 0-0.2 0-0.2 0-0.1 0-0.1 0-0.1 0 0 0-0.1 0-0.1 0-1 0-2.7 0.1-3.6 0.1 0 0-0.1 0.1-0.1 0.1-0.9 0-2.7 0-2.7 0-0.5 0.6-1.5 1.8-1.5 1.8-0.1 0-1.2 0.7-3.1 2.3q0 0 0 0c0.2-0.2 0.6-0.6 0.6-0.6 0 0-0.1 0-0.1 0q-0.8 0.6-1 0.6c2.7-2.8 4-4.3 4-4.8-1.2-2.1-3.5-6.1-3.5-6.1-0.3 0-0.8 0-0.8 0 0 0.1 0 0.4 0 0.4 0 1.1-0.2 3.2-0.2 3.2 0.1 0.1 0.1 0.3 0.1 0.3q-0.2 0.8-0.3 2.5 0.4 0.2 0.8 0.2c0.1 0 0.4 0 0.4 0 0.1 0 0.1 0.1 0.1 0.1 0 0.1 0 0.2 0 0.2 0 0-0.1 0.1-0.1 0.1-0.3 0-0.8 0.1-0.8 0.1 0.5 0.4 1.3 1.3 1.3 1.3q0 0 0 0-2.1-1.2-2.5-1.2c-0.2 0-0.6 0-0.6 0q-0.9 0.1-2.7 0.7 0 0 0 0c0.2-0.2 0.6-0.6 0.6-0.6q-0.7 0-0.7-0.1c0-0.1 0-0.2 0-0.2 0.1 0 0.2-0.1 0.2-0.1 0.1 0 0.4-0.1 0.4-0.1q1.1-0.1 1.2-1c0.1-1.9 0.3-4.5 0.5-6.7 0.1-2.2 0.2-3.9 0.2-3.9q0-0.1-0.4-0.2-0.4 0-1.9 0.6 1.5-1.5 2.5-2-0.3-0.9-0.9-0.9c-0.3 0-0.7 0-0.7 0 0 0-0.1-0.1-0.1-0.1 0-0.1 0-0.2 0-0.2q0 0 0 0 0 0 0 0 0 0 0 0c0 0 0.1-0.1 0.1-0.1q0 0 0 0zm11.5 3.8c0 0 0 0.1 0 0.1-0.2-0.2-0.6-0.5-0.6-0.5q0 0 0 0-0.2 0-0.4 0c-0.6 0.5-1.1 0.9-1.1 0.9q0 0 0 0-0.1 0.6-0.5 1.3 0.8 0.1 1.9 2.5c0.1 0.6 0.4 2 0.4 2q-0.1 1.3-1.4 3.2 0.5 0.5 1.8 0.8 0.1-0.1 0.1-0.2 1.1 0 1.1-0.4 0.1-0.4 0.1-1c0.1-3.3 0.2-9.6 0.2-9.6 0-0.4 0.1-1.1 0.1-1.1-0.1 0-0.1-0.1-0.1-0.1-0.1 0-0.3 0-0.3 0q-0.7 0-1.6 1.1 0 0.1-0.1 0.1 0.2 0.4 0.4 0.9zm-2.1-0.1c0 0.1 0 0.2 0 0.2q0 0.2 0 0.3 0.3-0.3 0.6-0.7-0.2 0.1-0.6 0.2zm-5.8 0.4c0 1-0.1 2.9-0.1 2.9q1.7-0.1 2.6-0.8 0 0 0-0.1-0.8-0.3-1.4-0.4 0-0.1 0-0.1 1.3-1.2 2.6-1.7c0 0 0-0.1 0-0.1q0.1-1.7-0.9-2.5-1.7 0-2.3 1.3-0.4 0.7-0.5 1.5 0 0 0 0zm2.7 3.3q0 0 0 0 0 0 0 0 0 0 0 0zm2.9 5.1c0 0 0.1 0 0.1 0q0.4-0.9 0.5-1.5 0-2.2-2.5-4c0 0-1 0.4-1 0.4 0.9 1.6 2.9 5.1 2.9 5.1zm-1.9-5.5q0 0 0 0zm-1 0.4q0 0 0 0zm11.1-0.1q0 0 0 0 0 1 0.9 3.6c0 0 0.1 0 0.1 0 0.8-2.8 2.6-8.3 2.6-8.3q-0.5 0.4-1.9 2.6-1.6 1.1-1.7 2.1 0 0 0 0zm15.4-7.5c0.4 0 1.2 0 1.2 0q2.2 0 4.5 1.6 0.2-0.1 2.3 1.4c-0.1 0-0.1 0-0.1 0-0.7-0.2-2.1-0.5-2.1-0.5 0 0 0 0.1 0 0.1q0 0 0 0 1.7 1.9 1.9 4.5c0 0.2 0.1 0.8 0.1 0.8 0.2 2.8-1 5-3.7 6.4q-0.9 0.2-1.2 0.9-1.3 1.4-1.3 2.4-0.1 0.1-0.3 2.1c-0.1 0-0.2-0.1-0.2-0.1-0.1-1.8-0.9-3.6-2.4-5.2q-4.9-2.1-5.1-7.2-0.1-2.8 1.6-4.7c-0.3 0-0.7 0-0.7 0-0.5 0-1.5 0.1-1.5 0.1 0-0.1 0-0.1 0-0.1 3.4-1.7 5.8-2.5 7-2.5q0 0 0 0zm-2.1 5.5c0 0.2 0 0.4 0 0.4 0.2 3.6 0.8 6.2 1.8 7.9 0.3 0 1 0.1 1 0.1 0.3 0.1 0.7 0.1 0.7 0.1q1.5 0.1 1.4-0.9c0.5-1.6 0.6-4 0.5-7.1-0.2-2.7-0.8-4.3-2-4.9-0.1 0-0.4-0.1-0.4-0.1-0.4 0-1.1 0-1.1 0q-0.9 0-1.6 1.4-0.4 1.2-0.3 3.1 0 0 0 0zm-1.8 2.3q0 0 0 0 0 0 0 0 0 0 0 0 0 0 0 0 0 0 0 0 0 0 0 0 0 0 0 0zm0 0.4q0.1 2.1 1.6 4c0 0-0.1-0.1-0.1-0.1-0.9-2.5-1.4-3.9-1.4-4.3h-0.1c0 0.1 0 0.4 0 0.4zm0-0.4q0 0 0 0zm8-14.2c4.8 0.4 7.5 0.8 8.1 1.2q1.3 0.4 3.8 1.9c1.5-0.1 4.7-0.1 4.7-0.1 0 0 0 0.1 0 0.1q-1.7 0.8-2.3 1.3c4.2 3.9 6.4 6.4 6.4 6.9q0.7 0.8 1.5 2.2c0.1 0 0.1 0 0.1 0-0.1-1.9-0.1-5.3-0.1-5.3-0.1-2.2-0.3-3.5-0.8-3.9-0.9-0.4-2.5-1.2-2.5-1.2 0-0.1 0-0.2 0-0.2 3.4-0.1 10.7-0.2 10.7-0.2 0 0.1 0 0.1 0 0.1q-0.6 0.4-3 1.6-0.7 1.1-0.7 2.6c0 2.7 0 5.5 0.2 9 0.1 3 0.3 5.5 0.3 5.5q0 1.2 0.7 1.2 0.1 0.2 2.1 1.1c0 0.1 0 0.2 0 0.2-1.1-0.1-3.3-0.3-3.3-0.3 1.5 3.1 2.1 5.3 2.1 6.6 0.1 1.2 0.1 2.6 0 4.1 0 1.3-0.2 2.4-0.2 2.4 0 0-0.1 0-0.1 0 0 0 0 0 0 0-0.1-0.7-0.1-1.9-0.1-3.6-0.1-0.4-0.2-2-0.5-4.6q-0.2-0.1-0.5-1.9c-0.3-0.6-0.9-1.9-0.9-1.9 0 0-0.1 0-0.1 0 0 0.1 0 0.1 0 0.1 0.1 0.8 0.3 2.2 0.3 2.2 0 0.5-0.2 3.8-1.1 7.6 0 0-0.1 0-0.1 0 0-0.1 0-0.1 0-0.1 0-0.6 0-1.7 0-1.7 0.1-0.5 0.2-1.5 0.2-1.5 0.1-0.3 0.1-1 0.1-1 0-1.2 0.1-3.6 0.1-3.6 0-0.1 0.1-0.1 0.1-0.1 0 0 0-0.1 0-0.1-0.2-1-0.6-3.1-0.6-3.1-1.5-0.1-4.4-0.4-4.4-0.4 0-0.1 0-0.2 0-0.2 0.1 0 0.2 0 0.2 0q1.7 0.2 2.1-1.3 0.4-0.6 0.3-0.9c0-0.1 0-0.3 0-0.3 0-0.5-1.4-2.2-4.2-4.9q-1.8-2-2.1-2c0.2 2.2 0.6 6.7 0.6 6.7-0.1 0-0.2 0-0.2 0q-0.7-2.3-1.6-2.4c-0.4 0-1.4-0.1-1.4-0.1 0.1 0.8 0.2 2.2 0.2 2.2q0.9 2.5 2.5 2.6c0.2 0.1 0.5 0.1 0.5 0.1 0 0 0 0.2 0 0.2-3-0.3-8.9-0.8-8.9-0.8 0-0.1 0-0.2 0-0.2q2.5-0.7 2.5-1c0-0.2 0-0.6 0-0.6 0-0.9-0.2-2.7-0.2-2.7-0.7 0-2.1-0.1-2.1-0.1-0.1 0.5-0.3 1.6-0.3 1.6 0 0-0.1-0.1-0.1-0.1-0.2-1.7-0.5-5.1-0.5-5.1 0.1 0 0.2 0 0.2 0q0 0.6 0.9 1.2c0.6 0 1.7 0 1.7 0-0.3-3.1-0.5-8.7-0.5-8.7q0-0.1 1.4-0.4 0.4-0.4 0.4-0.7c0 0 0-0.1 0-0.1q-0.2-0.8-1-0.8c-0.5 0-1.6 0-1.6 0q-0.3 0-2.3-0.9c0-0.1 0-0.2 0-0.2 1.3 0 3.8-0.1 3.8-0.1q-1.9-1.2-3.1-1.4-1.3-0.5-4.1-0.9-0.4-0.2-2.8-0.5 0-0.1-0.5-0.2c0 0 0-0.1 0-0.1q0 0 0 0zm0 0q0 0 0 0 0 0 0 0zm-4 21.1c0 0 0 0.1 0 0.1q0.5 0.9 0.9 1.1c0 0 0.1 0 0.1 0q0.9-0.7 1-1.1c-0.2 0-0.7 0.1-0.7 0.1-0.3-0.1-0.8-0.1-0.8-0.1 0 0-0.5-0.1-0.5-0.1q0 0 0 0zm5.1-5.8q-0.5 2.3-1 3.8c0 0 0 0 0 0 0 0 0.1 0 0.1 0q1.1-1.8 1-3.7c0 0 0-0.1 0-0.1 0 0-0.1 0-0.1 0q0 0 0 0zm12.3-9.1c0 0.6 0 1.9 0 1.9 0 0.3 0 0.8 0 0.8 3.1 2.3 6 5 8.6 8.3 0 0-0.1-0.1-0.1-0.1-0.2-0.7-1.2-2.2-2.9-4.5-0.4-1-1.9-2.8-4.4-5.3q-0.9-1.1-1.2-1.1 0 0 0 0 0 0 0 0zm0.1 4.9c0 0.8 0.1 2.3 0.1 2.3 0 0.6 0.1 1.8 0.1 1.8 0.1 0 0.2 0 0.2 0q2.1 0.1 2-0.9 0.2 0 0.4-1-1.9-1.6-2.8-2.2 0 0 0 0z"/></svg>